<svg width="60" height="60" viewBox="0 0 60 60" fill="none" xmlns="http://www.w3.org/2000/svg">
<path d="M30.0021 7C23.0033 7 13.4565 7.10403 11.5195 7.26766C9.34586 8.50719 5.04304 13.1996 5 14.4186V16.4641C5 19.0474 7.54581 21.3179 9.85078 21.3179C12.612 21.3179 14.9159 19.1293 14.9159 16.5479C14.9159 19.1293 17.1548 21.3179 19.9138 21.3179C22.6966 21.3179 24.8487 19.1313 24.8487 16.5479C24.8487 19.1293 27.1941 21.3179 29.9769 21.3179H30.0231C32.8059 21.3179 35.1513 19.1313 35.1513 16.5479C35.1513 19.1293 37.3249 21.3179 40.0862 21.3179C42.8474 21.3179 45.0883 19.1313 45.0883 16.5479C45.0883 19.1293 47.3922 21.3179 50.1534 21.3179C52.4584 21.3179 55 19.0474 55 16.4641V14.4186C54.957 13.1996 50.6541 8.50719 48.4805 7.26766C41.7184 7.04062 37.0009 7 30.0021 7ZM24.731 20.7906C22.4648 24.4928 16.7713 24.5372 14.5502 20.8146C13.1944 23.0482 10.1253 23.9106 8.81253 23.4872C8.42944 27.3714 8.16513 47.3126 10.9479 50.6569C19.1196 52.4671 41.117 52.4282 49.0563 50.6569C52.2738 47.5397 51.5532 27.0892 51.1917 23.4872C49.8789 23.9106 46.8093 23.0482 45.475 20.8146C43.2303 24.5372 37.5373 24.4928 35.2732 20.7906C34.5738 21.9974 32.9441 23.5871 30.0021 23.5871C27.8435 23.6668 25.8092 22.5599 24.731 20.7906ZM20.145 25.4088C21.8668 25.4088 23.4382 25.4097 25.3321 27.4142C28.4527 27.1074 31.5515 27.1074 34.6721 27.4142C36.5876 25.4302 38.1375 25.4287 39.8592 25.4287C45.4118 25.4287 46.748 33.2215 48.7495 39.9304C50.5573 46.169 48.1428 46.3343 45.1513 46.3343C40.6963 46.1707 38.224 43.1029 38.224 40.0143C34.0704 40.6689 27.4404 40.9143 21.7802 40.0143C21.7802 43.1029 19.3079 46.1707 14.8529 46.3343C11.8614 46.3343 9.44691 46.169 11.2547 39.9304C13.2562 33.1806 14.5924 25.4287 20.145 25.4287V25.4088ZM30.0021 31.2933C30.0021 31.2933 26.3563 34.4891 25.6978 35.6039L28.0811 35.52V37.4975C28.0811 37.6161 29.8428 37.5135 30.0021 37.5135C30.9641 37.5483 31.9231 37.5814 31.9231 37.4975V35.52L34.3064 35.6039C33.6479 34.4871 30.0021 31.2933 30.0021 31.2933Z" fill="#C13F27" stroke="#C13F27"/>
</svg>
