<svg width="50" height="50" viewBox="0 0 50 50" fill="none" xmlns="http://www.w3.org/2000/svg">
<g clip-path="url(#clip0_7_11)">
<path d="M39.726 0.684937H10.274C4.97809 0.684937 0.684931 4.9781 0.684931 10.274V39.726C0.684931 45.0219 4.97809 49.3151 10.274 49.3151H39.726C45.0219 49.3151 49.3151 45.0219 49.3151 39.726V10.274C49.3151 4.9781 45.0219 0.684937 39.726 0.684937Z" fill="#C13F27" stroke="#C13F27" stroke-width="2"/>
<path d="M41.306 16.0467C39.6546 13.2173 37.4146 10.9772 34.5855 9.32602C31.7559 7.67473 28.6668 6.8493 25.3161 6.8493C21.9658 6.8493 18.8757 7.67499 16.0467 9.32602C13.2173 10.9771 10.9774 13.2173 9.32603 16.0467C7.67491 18.876 6.84931 21.9657 6.84931 25.3156C6.84931 29.3396 8.02333 32.958 10.3719 36.1719C12.7203 39.386 15.754 41.6101 19.4729 42.8443C19.9058 42.9247 20.2262 42.8681 20.4346 42.6762C20.643 42.484 20.7471 42.2433 20.7471 41.9551C20.7471 41.907 20.743 41.4744 20.735 40.6567C20.7267 39.839 20.7229 39.1257 20.7229 38.5171L20.1698 38.6127C19.8172 38.6773 19.3723 38.7047 18.8353 38.697C18.2985 38.6895 17.7412 38.6332 17.1642 38.5286C16.587 38.4249 16.0501 38.1845 15.5531 37.8078C15.0564 37.4311 14.7037 36.938 14.4953 36.3292L14.2549 35.7759C14.0946 35.4075 13.8423 34.9983 13.4976 34.5498C13.1528 34.1008 12.8043 33.7964 12.4516 33.6362L12.2833 33.5156C12.1711 33.4355 12.067 33.3389 11.9708 33.2268C11.8746 33.1148 11.8026 33.0026 11.7545 32.8902C11.7063 32.7778 11.7462 32.6856 11.8747 32.6132C12.0031 32.5409 12.2352 32.5058 12.572 32.5058L13.0527 32.5776C13.3733 32.6419 13.7699 32.8338 14.243 33.1546C14.7158 33.4751 15.1045 33.8918 15.4091 34.4046C15.778 35.062 16.2224 35.5629 16.7436 35.9076C17.2644 36.2523 17.7895 36.4244 18.3184 36.4244C18.8473 36.4244 19.3041 36.3843 19.689 36.3045C20.0735 36.2244 20.4342 36.1039 20.771 35.9437C20.9152 34.8692 21.308 34.0438 21.949 33.4668C21.0354 33.3708 20.214 33.2262 19.4844 33.0339C18.7553 32.8414 18.0018 32.5289 17.2244 32.0957C16.4467 31.6631 15.8015 31.1258 15.2886 30.4849C14.7757 29.8437 14.3548 29.0018 14.0265 27.9601C13.6979 26.918 13.5336 25.7159 13.5336 24.3534C13.5336 22.4134 14.1669 20.7625 15.4333 19.3999C14.8401 17.9414 14.8961 16.3063 15.6015 14.495C16.0664 14.3505 16.7558 14.4589 17.6694 14.8194C18.5832 15.1802 19.2522 15.4892 19.6772 15.7454C20.1022 16.0015 20.4427 16.2185 20.6992 16.3945C22.1903 15.9779 23.7291 15.7695 25.3159 15.7695C26.9028 15.7695 28.4419 15.9779 29.9331 16.3945L30.8467 15.8177C31.4716 15.4328 32.2094 15.0801 33.0585 14.7595C33.9081 14.439 34.5578 14.3508 35.0068 14.4952C35.7279 16.3067 35.7922 17.9416 35.1988 19.4001C36.4651 20.7628 37.0987 22.4141 37.0987 24.3536C37.0987 25.7161 36.9338 26.9221 36.6057 27.9722C36.2773 29.0225 35.8527 29.8635 35.3319 30.497C34.8105 31.1304 34.1612 31.6634 33.3838 32.096C32.6063 32.5288 31.8526 32.8413 31.1234 33.0338C30.3939 33.2263 29.5725 33.371 28.6589 33.4672C29.4922 34.1883 29.9089 35.3265 29.9089 36.8814V41.9545C29.9089 42.2427 30.0091 42.4833 30.2097 42.6755C30.4101 42.8675 30.7265 42.924 31.1594 42.8436C34.8787 41.6095 37.9125 39.3854 40.2607 36.1712C42.6088 32.9573 43.7832 29.3389 43.7832 25.3149C43.7824 21.9654 42.9563 18.876 41.306 16.0467Z" fill="white"/>
</g>
<defs>
<clipPath id="clip0_7_11">
<rect width="50" height="50" fill="white"/>
</clipPath>
</defs>
</svg>
