<svg width="50" height="50" viewBox="0 0 50 50" fill="none" xmlns="http://www.w3.org/2000/svg">
<g clip-path="url(#clip0_21_261)">
<path d="M39.726 0.685059H10.274C4.9781 0.685059 0.684937 4.97822 0.684937 10.2741V39.7262C0.684937 45.022 4.9781 49.3152 10.274 49.3152H39.726C45.0219 49.3152 49.3151 45.022 49.3151 39.7262V10.2741C49.3151 4.97822 45.0219 0.685059 39.726 0.685059Z" fill="#F6F6F6" stroke="#F6F6F6" stroke-width="2"/>
<path d="M41.306 16.047C39.6547 13.2176 37.4147 10.9775 34.5855 9.32632C31.7559 7.67504 28.6669 6.84961 25.3161 6.84961C21.9658 6.84961 18.8757 7.67529 16.0467 9.32632C13.2173 10.9774 10.9774 13.2176 9.32608 16.047C7.67496 18.8763 6.84937 21.966 6.84937 25.3159C6.84937 29.3399 8.02338 32.9583 10.372 36.1722C12.7204 39.3863 15.7541 41.6104 19.4729 42.8446C19.9058 42.925 20.2263 42.8685 20.4346 42.6765C20.6431 42.4843 20.7472 42.2436 20.7472 41.9554C20.7472 41.9073 20.743 41.4747 20.735 40.657C20.7268 39.8394 20.7229 39.126 20.7229 38.5174L20.1699 38.613C19.8172 38.6776 19.3724 38.705 18.8353 38.6973C18.2985 38.6898 17.7412 38.6335 17.1643 38.5289C16.587 38.4252 16.0501 38.1848 15.5531 37.8081C15.0564 37.4314 14.7038 36.9383 14.4954 36.3295L14.2549 35.7762C14.0946 35.4078 13.8423 34.9986 13.4976 34.5501C13.1529 34.1011 12.8043 33.7967 12.4517 33.6365L12.2833 33.5159C12.1712 33.4358 12.0671 33.3393 11.9708 33.2272C11.8746 33.1151 11.8026 33.0029 11.7545 32.8905C11.7064 32.7781 11.7463 32.6859 11.8747 32.6135C12.0031 32.5412 12.2353 32.5061 12.572 32.5061L13.0528 32.5779C13.3734 32.6422 13.77 32.8341 14.243 33.1549C14.7158 33.4754 15.1045 33.8921 15.4091 34.4049C15.778 35.0623 16.2224 35.5632 16.7437 35.9079C17.2645 36.2526 17.7896 36.4247 18.3185 36.4247C18.8474 36.4247 19.3042 36.3846 19.689 36.3049C20.0735 36.2247 20.4342 36.1042 20.771 35.944C20.9153 34.8695 21.3081 34.0441 21.9491 33.4671C21.0355 33.3711 20.2141 33.2265 19.4845 33.0342C18.7553 32.8417 18.0018 32.5292 17.2245 32.096C16.4467 31.6634 15.8015 31.1261 15.2887 30.4852C14.7758 29.844 14.3549 29.0021 14.0265 27.9604C13.698 26.9183 13.5337 25.7162 13.5337 24.3537C13.5337 22.4137 14.167 20.7628 15.4334 19.4002C14.8401 17.9417 14.8961 16.3066 15.6016 14.4953C16.0665 14.3508 16.7559 14.4592 17.6695 14.8198C18.5833 15.1805 19.2523 15.4895 19.6773 15.7457C20.1022 16.0018 20.4427 16.2188 20.6993 16.3948C22.1904 15.9782 23.7291 15.7698 25.316 15.7698C26.9028 15.7698 28.4419 15.9782 29.9331 16.3948L30.8468 15.818C31.4716 15.4331 32.2095 15.0804 33.0586 14.7598C33.9082 14.4393 34.5578 14.3511 35.0069 14.4955C35.728 16.307 35.7922 17.9419 35.1988 19.4004C36.4651 20.7631 37.0987 22.4144 37.0987 24.3539C37.0987 25.7164 36.9338 26.9224 36.6058 27.9725C36.2773 29.0228 35.8528 29.8638 35.332 30.4973C34.8106 31.1307 34.1612 31.6637 33.3839 32.0963C32.6064 32.5291 31.8526 32.8416 31.1235 33.0341C30.394 33.2267 29.5726 33.3713 28.659 33.4675C29.4922 34.1886 29.9089 35.3268 29.9089 36.8817V41.9548C29.9089 42.243 30.0092 42.4836 30.2098 42.6758C30.4101 42.8678 30.7265 42.9243 31.1594 42.8439C34.8788 41.6098 37.9125 39.3857 40.2608 36.1715C42.6088 32.9577 43.7833 29.3392 43.7833 25.3152C43.7824 21.9657 42.9564 18.8763 41.306 16.047Z" fill="#C13F27"/>
</g>
<defs>
<clipPath id="clip0_21_261">
<rect width="50" height="50" fill="white"/>
</clipPath>
</defs>
</svg>
