<svg width="60" height="60" viewBox="0 0 60 60" fill="none" xmlns="http://www.w3.org/2000/svg">
<path fill-rule="evenodd" clip-rule="evenodd" d="M15 5C9.47715 5 5 9.47715 5 15V45C5 50.5228 9.47715 55 15 55H45C50.5228 55 55 50.5228 55 45V15C55 9.47715 50.5228 5 45 5H15ZM10 15C10 12.2386 12.2386 10 15 10H45C47.7615 10 50 12.2386 50 15V45C50 47.7615 47.7615 50 45 50H15C12.2386 50 10 47.7615 10 45V15ZM22.5 27.5C22.5 26.1192 21.3807 25 20 25C18.6193 25 17.5 26.1192 17.5 27.5V42.5C17.5 43.8807 18.6193 45 20 45C21.3807 45 22.5 43.8807 22.5 42.5V27.5ZM23.75 18.75C23.75 20.8211 22.0711 22.5 20 22.5C17.9289 22.5 16.25 20.8211 16.25 18.75C16.25 16.6789 17.9289 15 20 15C22.0711 15 23.75 16.6789 23.75 18.75ZM30 25C30.8487 25 31.5988 25.423 32.0508 26.0698C33.3323 25.3755 34.759 25 36.25 25C41.6485 25 45 29.8145 45 33.9285V33.9475V33.9663V33.9853V34.0042V34.0232V34.0425V34.0615V34.0808V34.1V34.1193V34.1388V34.158V34.1775V34.197V34.2165V34.236V34.2555V34.2752V34.295V34.3145V34.3345V34.3542V34.374V34.394V34.4137V34.4338V34.4538V34.474V34.494V34.5143V34.5342V34.5545V34.5747V34.595V34.6155V34.6357V34.6562V34.6765V34.697V34.7175V34.7383V34.7587V34.7793V34.8V34.8207V34.8412V34.862V34.883V34.9038V34.9245V34.9455V34.9665V34.9872V35.0082V35.0292V35.0502V35.0715V35.0925V35.1138V35.1348V35.156V35.1772V35.1985V35.2197V35.241V35.2623V35.2837V35.305V35.3265V35.348V35.3695V35.3907V35.4125V35.434V35.4555V35.477V35.4988V35.5203V35.542V35.5635V35.5853V35.607V35.6287V35.6505V35.6722V35.694V35.716V35.7378V35.7598V35.7815V35.8035V35.8253V35.8472V35.8693V35.8912V35.9132V35.9352V35.9573V35.9792V36.0013V36.0233V36.0455V36.0675V36.0897V36.1118V36.134V36.156V36.1782V36.2005V36.2228V36.2448V36.267V36.2893V36.3115V36.3337V36.356V36.3783V36.4005V36.423V36.4453V36.4675V36.4897V36.5123V36.5345V36.5567V36.5792V36.6015V36.624V36.6462V36.6685V36.691V36.7135V36.7357V36.7583V36.7805V36.803V36.8255V36.8478V36.8703V36.8925V36.915V36.9375V36.9598V36.9823V37.0047V37.027V37.0495V37.072V37.0945V37.1167V37.1392V37.1618V37.184V37.2065V37.229V37.2513V37.2738V37.296V37.3185V37.3408V37.3633V37.3857V37.408V37.4305V37.4528V37.475V37.4975V37.5198V37.5423V37.5645V37.5868V37.609V37.6315V37.6537V37.676V37.6982V37.7205V37.7428V37.765V37.7873V37.8095V37.8317V37.854V37.876V37.8983V37.9205V37.9425V37.9647V37.9868V38.009V38.031V38.0532V38.0752V38.0973V38.1192V38.1413V38.1632V38.1852V38.2072V38.2293V38.2513V38.273V38.295V38.3167V38.3387V38.3605V38.3822V38.404V38.4258V38.4475V38.4692V38.491V38.5127V38.5345V38.556V38.5778V38.5993V38.6208V38.6425V38.664V38.6855V38.7067V38.7282V38.7497V38.7713V38.7925V38.8138V38.8353V38.8565V38.8778V38.899V38.9202V38.9412V38.9625V38.9835V39.0047V39.0257V39.0467V39.0677V39.0887V39.1097V39.1305V39.1515V39.1722V39.193V39.2137V39.2345V39.2552V39.276V39.2965V39.3172V39.3377V39.3582V39.3787V39.3993V39.4198V39.44V39.4605V39.4808V39.501V39.5213V39.5415V39.5615V39.5817V39.6017V39.6217V39.6418V39.6618V39.6817V39.7015V39.7213V39.7412V39.761V39.7805V39.8003V39.82V39.8395V39.859V39.8785V39.898V39.9173V39.9367V39.956V39.9753V39.9945V40.0138V40.0327V40.052V40.071V40.09V40.1088V40.1278V40.1465V40.1652V40.184V40.2028V40.2215V40.24V40.2585V40.277V40.2955V40.3138V40.3323V40.3505V40.3687V40.3867V40.405V40.423V40.441V40.459V40.477V40.4948V40.5125V40.5302V40.548V40.5655V40.583V40.6005V40.618V40.6355V40.6528V40.67V40.6873V40.7045V40.7215V40.7385V40.7555V40.7725V40.7893V40.806V40.8228V40.8395V40.8563V40.8727V40.8892V40.9055V40.922V40.9382V40.9545V40.9705V40.9867V41.0028V41.0187V41.0345V41.0505V41.0662V41.082V41.0975V41.113V41.1285V41.144V41.1595V41.1748V41.19V41.205V41.2202V41.2353V41.25V41.265V41.2798V41.2945V41.3092V41.3237V41.3382V41.3527V41.367V41.3812V41.3955V41.4098V41.4238V41.4378V41.4518V41.4655V41.4792V41.493V41.5065V41.5203V41.5335V41.547V41.5602V41.5735V41.5868V41.5998V41.6127V41.6257V41.6385V41.6512V41.664V41.6765V41.689V41.7015V41.7137V41.726V41.7382V41.7503V41.7623V41.7743V41.786V41.7978V41.8095V41.821V41.8325V41.844V41.8552V41.8665V41.8778V41.8888V41.8997V41.9107V41.9215V41.9323V41.9427V41.9532V41.9637V41.9743V41.9845V41.9945V42.0048V42.0148V42.0245V42.0345V42.0443V42.0538V42.0633V42.0728V42.082V42.0913V42.1005V42.1095V42.1185V42.1275V42.1362V42.145V42.1535V42.162V42.1705V42.1787V42.187V42.195V42.203V42.211V42.2188V42.2265V42.234V42.2415V42.249V42.2562V42.2635V42.2708V42.2778V42.2845V42.2913V42.298V42.3047V42.3112V42.3175V42.3238V42.33V42.336V42.342V42.348V42.3537V42.3595V42.365V42.3702V42.3758V42.381V42.386V42.391V42.396V42.4007V42.4055V42.41V42.4145V42.419V42.4232V42.4272V42.4313V42.4352V42.439V42.4427V42.4463V42.4498V42.4533V42.4565V42.4595V42.4625V42.4655V42.4683V42.471V42.4735V42.4783V42.4825V42.4865V42.4897V42.4928V42.496V42.499C45 43.8797 43.8807 45 42.5 45C41.1193 45 40 43.8807 40 42.5V42.497V42.494V42.4912V42.4883V42.4845V42.4805V42.476V42.471V42.4683V42.4655V42.4625V42.4595V42.4565V42.4533V42.4498V42.4463V42.4427V42.439V42.4352V42.4313V42.4272V42.4232V42.419V42.4145V42.41V42.4055V42.4007V42.396V42.391V42.386V42.381V42.3758V42.3702V42.365V42.3595V42.3537V42.348V42.342V42.336V42.33V42.3238V42.3175V42.3112V42.3047V42.298V42.2913V42.2845V42.2778V42.2708V42.2635V42.2562V42.249V42.2415V42.234V42.2265V42.2188V42.211V42.203V42.195V42.187V42.1787V42.1705V42.162V42.1535V42.145V42.1362V42.1275V42.1185V42.1095V42.1005V42.0913V42.082V42.0728V42.0633V42.0538V42.0443V42.0345V42.0245V42.0148V42.0048V41.9945V41.9845V41.9743V41.9637V41.9532V41.9427V41.9323V41.9215V41.9107V41.8997V41.8888V41.8778V41.8665V41.8552V41.844V41.8325V41.821V41.8095V41.7978V41.786V41.7743V41.7623V41.7503V41.7382V41.726V41.7137V41.7015V41.689V41.6765V41.664V41.6512V41.6385V41.6257V41.6127V41.5998V41.5868V41.5735V41.5602V41.547V41.5335V41.5203V41.5065V41.493V41.4792V41.4655V41.4518V41.4378V41.4238V41.4098V41.3955V41.3812V41.367V41.3527V41.3382V41.3237V41.3092V41.2945V41.2798V41.265V41.25V41.2353V41.2202V41.205V41.19V41.1748V41.1595V41.144V41.1285V41.113V41.0975V41.082V41.0662V41.0505V41.0345V41.0187V41.0028V40.9867V40.9705V40.9545V40.9382V40.922V40.9055V40.8892V40.8727V40.8563V40.8395V40.8228V40.806V40.7893V40.7725V40.7555V40.7385V40.7215V40.7045V40.6873V40.67V40.6528V40.6355V40.618V40.6005V40.583V40.5655V40.548V40.5302V40.5125V40.4948V40.477V40.459V40.441V40.423V40.405V40.3867V40.3687V40.3505V40.3323V40.3138V40.2955V40.277V40.2585V40.24V40.2215V40.2028V40.184V40.1652V40.1465V40.1278V40.1088V40.09V40.071V40.052V40.0327V40.0138V39.9945V39.9753V39.956V39.9367V39.9173V39.898V39.8785V39.859V39.8395V39.82V39.8003V39.7805V39.761V39.7412V39.7213V39.7015V39.6817V39.6618V39.6418V39.6217V39.6017V39.5817V39.5615V39.5415V39.5213V39.501V39.4808V39.4605V39.44V39.4198V39.3993V39.3787V39.3582V39.3377V39.3172V39.2965V39.276V39.2552V39.2345V39.2137V39.193V39.1722V39.1515V39.1305V39.1097V39.0887V39.0677V39.0467V39.0257V39.0047V38.9835V38.9625V38.9412V38.9202V38.899V38.8778V38.8565V38.8353V38.8138V38.7925V38.7713V38.7497V38.7282V38.7067V38.6855V38.664V38.6425V38.6208V38.5993V38.5778V38.556V38.5345V38.5127V38.491V38.4692V38.4475V38.4258V38.404V38.3822V38.3605V38.3387V38.3167V38.295V38.273V38.2513V38.2293V38.2072V38.1852V38.1632V38.1413V38.1192V38.0973V38.0752V38.0532V38.031V38.009V37.9868V37.9647V37.9425V37.9205V37.8983V37.876V37.854V37.8317V37.8095V37.7873V37.765V37.7428V37.7205V37.6982V37.676V37.6537V37.6315V37.609V37.5868V37.5645V37.5423V37.5198V37.4975V37.475V37.4528V37.4305V37.408V37.3857V37.3633V37.3408V37.3185V37.296V37.2738V37.2513V37.229V37.2065V37.184V37.1618V37.1392V37.1167V37.0945V37.072V37.0495V37.027V37.0047V36.9823V36.9598V36.9375V36.915V36.8925V36.8703V36.8478V36.8255V36.803V36.7805V36.7583V36.7357V36.7135V36.691V36.6685V36.6462V36.624V36.6015V36.5792V36.5567V36.5345V36.5123V36.4897V36.4675V36.4453V36.423V36.4005V36.3783V36.356V36.3337V36.3115V36.2893V36.267V36.2448V36.2228V36.2005V36.1782V36.156V36.134V36.1118V36.0897V36.0675V36.0455V36.0233V36.0013V35.9792V35.9573V35.9352V35.9132V35.8912V35.8693V35.8472V35.8253V35.8035V35.7815V35.7598V35.7378V35.716V35.694V35.6722V35.6505V35.6287V35.607V35.5853V35.5635V35.542V35.5203V35.4988V35.477V35.4555V35.434V35.4125V35.3907V35.3695V35.348V35.3265V35.305V35.2837V35.2623V35.241V35.2197V35.1985V35.1772V35.156V35.1348V35.1138V35.0925V35.0715V35.0502V35.0292V35.0082V34.9872V34.9665V34.9455V34.9245V34.9038V34.883V34.862V34.8412V34.8207V34.8V34.7793V34.7587V34.7383V34.7175V34.697V34.6765V34.6562V34.6357V34.6155V34.595V34.5747V34.5545V34.5342V34.5143V34.494V34.474V34.4538V34.4338V34.4137V34.394V34.374V34.3542V34.3345V34.3145V34.295V34.2752V34.2555V34.236V34.2165V34.197V34.1775V34.158V34.1388V34.1193V34.1V34.0808V34.0615V34.0425V34.0232V34.0042V33.9853V33.9663V33.9475V33.9285C40 32.008 38.3515 30 36.25 30C34.9398 30 33.4935 30.7123 32.5 32.4078V32.4145V32.4403V32.466V32.4918V32.5177V32.5435V32.5695V32.5955V32.6217V32.6478V32.6737V32.7V32.7262V32.7525V32.7787V32.805V32.8315V32.858V32.8843V32.9107V32.9373V32.9638V32.9905V33.017V33.0437V33.0705V33.097V33.124V33.1507V33.1775V33.2043V33.2312V33.2582V33.285V33.312V33.339V33.366V33.3932V33.4202V33.4475V33.4745V33.5017V33.529V33.5562V33.5835V33.6107V33.638V33.6655V33.6928V33.7202V33.7475V33.775V33.8025V33.83V33.8575V33.885V33.9125V33.9403V33.9678V33.9952V34.023V34.0508V34.0783V34.106V34.1337V34.1615V34.1893V34.217V34.2447V34.2725V34.3005V34.3283V34.356V34.384V34.4118V34.4398V34.4678V34.4955V34.5235V34.5515V34.5795V34.6073V34.6353V34.6632V34.6912V34.7195V34.7475V34.7755V34.8035V34.8315V34.8595V34.8878V34.9158V34.9438V34.972V35V35.0282V35.0562V35.0845V35.1125V35.1405V35.1688V35.197V35.225V35.2533V35.2812V35.3095V35.3375V35.3658V35.394V35.422V35.4503V35.4783V35.5065V35.5347V35.5627V35.591V35.619V35.6472V35.6752V35.7035V35.7315V35.7598V35.7878V35.816V35.844V35.8722V35.9002V35.9285V35.9565V35.9845V36.0125V36.0407V36.0687V36.0967V36.1247V36.1527V36.1807V36.2087V36.2368V36.2648V36.2928V36.3208V36.3488V36.3765V36.4045V36.4325V36.4602V36.4882V36.516V36.544V36.5718V36.5995V36.6273V36.655V36.683V36.7108V36.7383V36.766V36.7937V36.8215V36.849V36.8768V36.9042V36.932V36.9595V36.987V37.0145V37.042V37.0695V37.097V37.1245V37.1517V37.1793V37.2065V37.234V37.2612V37.2885V37.3158V37.343V37.3703V37.3973V37.4245V37.4515V37.4787V37.5058V37.5327V37.5597V37.5868V37.6138V37.6405V37.6675V37.6942V37.721V37.7477V37.7745V37.8013V37.828V37.8548V37.8812V37.9077V37.9342V37.9608V37.9872V38.0137V38.0402V38.0665V38.0928V38.119V38.1452V38.1715V38.1978V38.2238V38.2497V38.276V38.302V38.3278V38.3538V38.3797V38.4055V38.4313V38.457V38.4827V38.5083V38.534V38.5595V38.585V38.6105V38.636V38.6613V38.6867V38.712V38.7373V38.7622V38.7875V38.8125V38.8375V38.8625V38.8875V38.9125V38.9372V38.962V38.9867V39.0115V39.036V39.0607V39.0853V39.1097V39.134V39.1585V39.1828V39.207V39.2313V39.2552V39.2795V39.3035V39.3275V39.3512V39.3753V39.399V39.4228V39.4465V39.47V39.4935V39.517V39.5405V39.564V39.5872V39.6105V39.6335V39.6567V39.6797V39.7028V39.7257V39.7485V39.7715V39.7943V39.8167V39.8395V39.862V39.8845V39.9067V39.9292V39.9515V39.9738V39.9958V40.0177V40.0397V40.0618V40.0835V40.1053V40.127V40.1488V40.1702V40.1917V40.2132V40.2345V40.2558V40.277V40.2983V40.3193V40.3403V40.361V40.3818V40.4025V40.4232V40.444V40.4645V40.4847V40.5053V40.5255V40.5457V40.5658V40.5858V40.6058V40.6257V40.6455V40.6652V40.6847V40.7043V40.7237V40.7433V40.7625V40.7817V40.8007V40.82V40.839V40.8577V40.8765V40.8953V40.914V40.9325V40.9508V40.9692V40.9875V41.0057V41.0238V41.0418V41.0598V41.0775V41.0953V41.1128V41.1305V41.1478V41.1653V41.1825V41.1998V41.2168V41.2337V41.2505V41.2675V41.2843V41.3008V41.3172V41.3338V41.35V41.3662V41.3823V41.3982V41.4143V41.4302V41.4458V41.4615V41.477V41.4925V41.5078V41.523V41.5382V41.5532V41.568V41.583V41.5977V41.6122V41.6267V41.6413V41.6555V41.6698V41.6838V41.6978V41.7118V41.7255V41.739V41.7527V41.766V41.7795V41.7928V41.8057V41.8188V41.8317V41.8445V41.8573V41.8698V41.8822V41.8945V41.9067V41.919V41.931V41.943V41.9548V41.9663V41.978V41.9893V42.0008V42.012V42.023V42.034V42.0448V42.0555V42.0662V42.0768V42.087V42.0975V42.1075V42.1175V42.1275V42.1373V42.147V42.1565V42.166V42.1753V42.1845V42.1935V42.2025V42.2113V42.22V42.2285V42.237V42.2453V42.2535V42.2615V42.2695V42.2773V42.285V42.2925V42.3V42.3072V42.3145V42.3215V42.3282V42.3352V42.3418V42.3483V42.3548V42.361V42.367V42.373V42.379V42.3848V42.3903V42.3957V42.401V42.4062V42.4113V42.4162V42.421V42.4258V42.4302V42.4345V42.4388V42.4427V42.4468V42.4508V42.4543V42.4578V42.4613V42.4645V42.4678V42.4707V42.4735V42.4762V42.4788V42.4835V42.4875V42.491V42.494V42.4972V42.4998C32.5 43.8805 31.3808 45 30 45C28.6192 45 27.5 43.8807 27.5 42.5V42.4972V42.494V42.491V42.4875V42.4835V42.4788V42.4762V42.4735V42.4707V42.4678V42.4645V42.4613V42.4578V42.4543V42.4508V42.4468V42.4427V42.4388V42.4345V42.4302V42.4258V42.421V42.4162V42.4113V42.4062V42.401V42.3957V42.3903V42.3848V42.379V42.373V42.367V42.361V42.3548V42.3483V42.3418V42.3352V42.3282V42.3215V42.3145V42.3072V42.3V42.2925V42.285V42.2773V42.2695V42.2615V42.2535V42.2453V42.237V42.2285V42.22V42.2113V42.2025V42.1935V42.1845V42.1753V42.166V42.1565V42.147V42.1373V42.1275V42.1175V42.1075V42.0975V42.087V42.0768V42.0662V42.0555V42.0448V42.034V42.023V42.012V42.0008V41.9893V41.978V41.9663V41.9548V41.943V41.931V41.919V41.9067V41.8945V41.8822V41.8698V41.8573V41.8445V41.8317V41.8188V41.8057V41.7928V41.7795V41.766V41.7527V41.739V41.7255V41.7118V41.6978V41.6838V41.6698V41.6555V41.6413V41.6267V41.6122V41.5977V41.583V41.568V41.5532V41.5382V41.523V41.5078V41.4925V41.477V41.4615V41.4458V41.4302V41.4143V41.3982V41.3823V41.3662V41.35V41.3338V41.3172V41.3008V41.2843V41.2675V41.2505V41.2337V41.2168V41.1998V41.1825V41.1653V41.1478V41.1305V41.1128V41.0953V41.0775V41.0598V41.0418V41.0238V41.0057V40.9875V40.9692V40.9508V40.9325V40.914V40.8953V40.8765V40.8577V40.839V40.82V40.8007V40.7817V40.7625V40.7433V40.7237V40.7043V40.6847V40.6652V40.6455V40.6257V40.6058V40.5858V40.5658V40.5457V40.5255V40.5053V40.4847V40.4645V40.444V40.4232V40.4025V40.3818V40.361V40.3403V40.3193V40.2983V40.277V40.2558V40.2345V40.2132V40.1917V40.1702V40.1488V40.127V40.1053V40.0835V40.0618V40.0397V40.0177V39.9958V39.9738V39.9515V39.9292V39.9067V39.8845V39.862V39.8395V39.8167V39.7943V39.7715V39.7485V39.7257V39.7028V39.6797V39.6567V39.6335V39.6105V39.5872V39.564V39.5405V39.517V39.4935V39.47V39.4465V39.4228V39.399V39.3753V39.3512V39.3275V39.3035V39.2795V39.2552V39.2313V39.207V39.1828V39.1585V39.134V39.1097V39.0853V39.0607V39.036V39.0115V38.9867V38.962V38.9372V38.9125V38.8875V38.8625V38.8375V38.8125V38.7875V38.7622V38.7373V38.712V38.6867V38.6613V38.636V38.6105V38.585V38.5595V38.534V38.5083V38.4827V38.457V38.4313V38.4055V38.3797V38.3538V38.3278V38.302V38.276V38.2497V38.2238V38.1978V38.1715V38.1452V38.119V38.0928V38.0665V38.0402V38.0137V37.9872V37.9608V37.9342V37.9077V37.8812V37.8548V37.828V37.8013V37.7745V37.7477V37.721V37.6942V37.6675V37.6405V37.6138V37.5868V37.5597V37.5327V37.5058V37.4787V37.4515V37.4245V37.3973V37.3703V37.343V37.3158V37.2885V37.2612V37.234V37.2065V37.1793V37.1517V37.1245V37.097V37.0695V37.042V37.0145V36.987V36.9595V36.932V36.9042V36.8768V36.849V36.8215V36.7937V36.766V36.7383V36.7108V36.683V36.655V36.6273V36.5995V36.5718V36.544V36.516V36.4882V36.4602V36.4325V36.4045V36.3765V36.3488V36.3208V36.2928V36.2648V36.2368V36.2087V36.1807V36.1527V36.1247V36.0967V36.0687V36.0407V36.0125V35.9845V35.9565V35.9285V35.9002V35.8722V35.844V35.816V35.7878V35.7598V35.7315V35.7035V35.6752V35.6472V35.619V35.591V35.5627V35.5347V35.5065V35.4783V35.4503V35.422V35.394V35.3658V35.3375V35.3095V35.2812V35.2533V35.225V35.197V35.1688V35.1405V35.1125V35.0845V35.0562V35.0282V35V34.972V34.9438V34.9158V34.8878V34.8595V34.8315V34.8035V34.7755V34.7475V34.7195V34.6912V34.6632V34.6353V34.6073V34.5795V34.5515V34.5235V34.4955V34.4678V34.4398V34.4118V34.384V34.356V34.3283V34.3005V34.2725V34.2447V34.217V34.1893V34.1615V34.1337V34.106V34.0783V34.0508V34.023V33.9952V33.9678V33.9403V33.9125V33.885V33.8575V33.83V33.8025V33.775V33.7475V33.7202V33.6928V33.6655V33.638V33.6107V33.5835V33.5562V33.529V33.5017V33.4745V33.4475V33.4202V33.3932V33.366V33.339V33.312V33.285V33.2582V33.2312V33.2043V33.1775V33.1507V33.124V33.097V33.0705V33.0437V33.017V32.9905V32.9638V32.9373V32.9107V32.8843V32.858V32.8315V32.805V32.7787V32.7525V32.7262V32.7V32.6737V32.6478V32.6217V32.5955V32.5695V32.5435V32.5177V32.4918V32.466V32.4403V32.4145V32.3887V32.363V32.3372V32.3117V32.2863V32.2607V32.2353V32.21V32.1845V32.1593V32.134V32.1087V32.0837V32.0585V32.0335V32.0085V31.9835V31.9585V31.9338V31.909V31.8843V31.8595V31.8348V31.8102V31.7858V31.776V31.766V31.7563V31.7463V31.7365V31.7265V31.7165V31.7065V31.6965V31.6865V31.6765V31.6665V31.6565V31.6465V31.6362V31.6263V31.616V31.6057V31.5957V31.5855V31.5753V31.565V31.5547V31.5445V31.5343V31.524V31.5138V31.5033V31.493V31.4825V31.4722V31.4618V31.4512V31.441V31.4305V31.42V31.4095V31.399V31.3885V31.378V31.3675V31.3568V31.3462V31.3358V31.325V31.3145V31.3037V31.2932V31.2825V31.2718V31.2613V31.2505V31.2397V31.229V31.2183V31.2075V31.1967V31.186V31.1753V31.1642V31.1535V31.1427V31.132V31.121V31.1103V31.0993V31.0885V31.0775V31.0665V31.0558V31.0448V31.0337V31.023V31.012V31.001V30.99V30.979V30.968V30.957V30.946V30.935V30.924V30.913V30.9017V30.8908V30.8797V30.8687V30.8575V30.8465V30.8355V30.8243V30.8133V30.802V30.791V30.7798V30.7687V30.7575V30.7465V30.7352V30.724V30.713V30.7017V30.6905V30.6795V30.6682V30.657V30.6458V30.6347V30.6235V30.6122V30.601V30.5898V30.5785V30.5675V30.5562V30.545V30.5338V30.5225V30.5112V30.5V30.4888V30.4775V30.4662V30.455V30.4437V30.4325V30.4212V30.41V30.3988V30.3875V30.3763V30.365V30.3538V30.3425V30.3312V30.32V30.3088V30.2975V30.2863V30.275V30.2638V30.2522V30.241V30.2297V30.2185V30.2073V30.196V30.1847V30.1735V30.1623V30.151V30.14V30.1287V30.1175V30.1062V30.095V30.0837V30.0725V30.0612V30.05V30.0387V30.0278V30.0165V30.0052V29.994V29.983V29.9718V29.9605V29.9492V29.9382V29.927V29.9158V29.9047V29.8935V29.8825V29.8713V29.8603V29.849V29.838V29.8268V29.8158V29.8047V29.7935V29.7825V29.7715V29.7603V29.7493V29.7383V29.7272V29.7163V29.7052V29.6943V29.6832V29.6723V29.6613V29.6502V29.6392V29.6283V29.6175V29.6065V29.5955V29.5845V29.5737V29.5627V29.552V29.541V29.5303V29.5193V29.5085V29.4977V29.487V29.476V29.4653V29.4545V29.4438V29.433V29.4222V29.4115V29.4007V29.3902V29.3795V29.3688V29.3583V29.3475V29.3368V29.3263V29.3158V29.305V29.2945V29.284V29.2735V29.263V29.2523V29.2418V29.2315V29.221V29.2105V29.2V29.1898V29.1792V29.1687V29.1585V29.1483V29.1377V29.1275V29.1173V29.107V29.0967V29.0865V29.0763V29.066V29.0557V29.0458V29.0355V29.0252V29.0153V29.0053V28.995V28.985V28.975V28.965V28.955V28.945V28.935V28.925V28.9153V28.9053V28.8955V28.8855V28.8757V28.866V28.856V28.8462V28.8365V28.827V28.8173V28.8075V28.7978V28.7882V28.7785V28.769V28.7595V28.75V28.7405V28.731V28.7215V28.712V28.7025V28.6932V28.6838V28.6745V28.6652V28.6558V28.6465V28.6372V28.628V28.619V28.6098V28.6005V28.5915V28.5823V28.5732V28.5643V28.5553V28.5462V28.5373V28.5282V28.5195V28.5105V28.5017V28.4928V28.484V28.4752V28.4665V28.4577V28.4492V28.4405V28.432V28.4233V28.4147V28.4062V28.3978V28.3892V28.3807V28.3722V28.364V28.3555V28.3472V28.339V28.3307V28.3225V28.3142V28.306V28.298V28.2897V28.2817V28.2738V28.2658V28.2577V28.2498V28.2417V28.234V28.226V28.2183V28.2105V28.2028V28.195V28.1873V28.1798V28.172V28.1645V28.157V28.1495V28.142V28.1345V28.127V28.1198V28.1122V28.105V28.0978V28.0905V28.0833V28.0763V28.069V28.062V28.0548V28.0478V28.0408V28.034V28.027V28.0203V28.0133V28.0065V27.9997V27.993V27.9862V27.9798V27.973V27.9665V27.96V27.9535V27.947V27.9408V27.9342V27.928V27.9218V27.9155V27.9093V27.903V27.897V27.8907V27.8848V27.8787V27.8728V27.8667V27.861V27.855V27.8493V27.8435V27.8378V27.8323V27.8265V27.821V27.8152V27.8098V27.8043V27.799V27.7935V27.7882V27.783V27.7778V27.7725V27.7673V27.7623V27.757V27.752V27.747V27.7423V27.7373V27.7325V27.7275V27.7227V27.7183V27.7135V27.7087V27.7043V27.6997V27.6953V27.6908V27.6865V27.682V27.6777V27.6735V27.6693V27.6653V27.661V27.657V27.653V27.649V27.645V27.6413V27.6375V27.6338V27.63V27.6262V27.6225V27.619V27.6155V27.612V27.6085V27.6052V27.602V27.5985V27.5955V27.5922V27.589V27.586V27.583V27.58V27.577V27.5743V27.5715V27.5688V27.566V27.5632V27.5607V27.558V27.5555V27.5508V27.5463V27.5417V27.5375V27.5335V27.5298V27.5262V27.5228V27.5198V27.5167V27.513V27.5105V27.5075V27.505V27.502C27.5 26.1213 28.6192 25 30 25Z" fill="#F6F6F6"/>
</svg>
